<svg width="153.05" height="107.56" viewBox="0 0 153.05 107.56" xmlns="http://www.w3.org/2000/svg" xmlns:xlink="http://www.w3.org/1999/xlink" overflow="visible"><defs></defs><g><path d="M110.17 87.23C101.12 96.07 89.17 100.94 76.52 100.94 62.28 100.94 48.85 94.69 39.67 83.79 38.49 82.39 36.4 82.21 35 83.39 33.6 84.57 33.42 86.66 34.6 88.06 45.04 100.46 60.32 107.57 76.52 107.57 90.91 107.57 104.51 102.03 114.8 91.98 116.11 90.7 116.13 88.6 114.85 87.3 113.58 85.98 111.48 85.95 110.17 87.23Z" fill="#CB007B"/><g><path d="M21.34 60.95C21.02 59.38 20.74 57.92 20.49 56.57 20.42 56.18 20.28 55.53 20.07 54.63 19.86 53.73 19.57 52.75 19.22 51.68 18.87 50.62 18.46 49.57 18 48.52 17.54 47.48 17.03 46.61 16.46 45.92 15.89 45.23 15.28 44.81 14.63 44.65 13.97 44.49 13.29 44.77 12.59 45.47 12.2 45.86 12.01 46.22 12.03 46.56 12.05 46.9 12.16 47.25 12.37 47.62 12.58 47.99 12.83 48.43 13.11 48.92 13.39 49.42 13.62 50.02 13.8 50.72 13.91 51.14 14.04 51.84 14.2 52.82 14.36 53.79 14.52 54.93 14.68 56.24 14.84 57.55 14.98 58.97 15.1 60.49 15.22 62.01 15.29 63.54 15.29 65.08 15.29 66.62 15.23 68.11 15.1 69.57 14.98 71.02 14.76 72.31 14.44 73.44 13.91 74.89 13.12 75.93 12.08 76.57 11.04 77.21 9.95 77.58 8.82 77.68 7.68 77.8 6.63 77.7 5.66 77.4 4.68 77.1 4 76.74 3.61 76.32 3.4 76.07 3.27 75.72 3.24 75.26 3.2 74.8 3.21 74.3 3.27 73.75 3.32 73.2 3.39 72.65 3.48 72.1 3.57 71.55 3.62 71.06 3.64 70.61 3.66 70.17 3.61 69.81 3.51 69.52 3.4 69.24 3.17 69.1 2.82 69.1 2.32 69.1 1.83 69.56 1.33 70.48 0.83 71.4 0.46 72.48 0.22 73.72-0.03 74.96-0.06 76.21 0.11 77.49 0.29 78.76 0.8 79.77 1.65 80.52 3.67 82.22 5.82 83.24 8.1 83.6 10.38 83.95 12.8 83.53 15.35 82.33 17.01 81.59 18.34 80.61 19.33 79.41 20.32 78.21 21.05 76.88 21.51 75.43 21.97 73.98 22.23 72.43 22.28 70.79 22.33 69.14 22.27 67.49 22.09 65.83 21.91 64.14 21.66 62.52 21.34 60.95Z" fill="#CB007B"/><path d="M38.28 78.86C39.02 77.83 39.62 76.61 40.08 75.2 40.19 76.47 40.49 77.64 40.98 78.7 41.4 79.62 42.06 80.5 42.94 81.35 43.82 82.2 45.08 82.77 46.71 83.05 47.7 83.23 48.49 83.24 49.07 83.1 49.65 82.96 50.04 82.76 50.24 82.49 50.43 82.22 50.41 81.95 50.16 81.67 49.91 81.39 49.45 81.16 48.78 80.98 48.04 80.8 47.46 80.32 47.05 79.52 46.64 78.72 46.34 77.77 46.15 76.65 45.96 75.54 45.86 74.31 45.86 72.99 45.86 72.19 45.87 71.4 45.89 70.62 45.68 70.85 45.47 71.07 45.24 71.27 43.95 72.42 42.6 73.1 41.22 73.28 40.92 73.32 40.63 73.34 40.35 73.34 39.41 73.34 38.54 73.12 37.75 72.71 37.63 73.04 37.5 73.36 37.36 73.66 36.94 74.58 36.43 75.34 35.85 75.94 35.27 76.54 34.57 76.84 33.75 76.84 33.18 76.84 32.72 76.54 32.37 75.94 32.02 75.34 31.75 74.57 31.57 73.63 31.39 72.69 31.27 71.66 31.2 70.52 31.13 69.39 31.09 68.3 31.09 67.26 31.09 66.22 31.11 65.27 31.14 64.42 31.17 63.57 31.21 62.97 31.25 62.62 31.28 61.88 31.02 61.38 30.45 61.13 29.88 60.88 29.24 60.77 28.51 60.78 27.78 60.8 27.09 60.91 26.41 61.13 25.74 61.34 25.3 61.54 25.08 61.71 24.9 61.89 24.74 62.28 24.6 62.88 24.46 63.48 24.35 64.21 24.28 65.06 24.21 65.91 24.17 66.83 24.17 67.82 24.17 68.81 24.22 69.8 24.33 70.79 24.44 72.03 24.63 73.26 24.91 74.48 25.19 75.7 25.63 76.82 26.21 77.85 26.79 78.88 27.55 79.75 28.49 80.48 29.43 81.21 30.62 81.67 32.07 81.89 33.52 82.1 34.75 81.88 35.76 81.23 36.82 80.57 37.64 79.78 38.28 78.86Z" fill="#CB007B"/><path d="M40.26 63.2C40.02 63.72 39.93 64.27 39.97 64.86 40.03 65.6 40.19 65.86 40.24 65.92 40.34 66.05 40.41 66.1 40.42 66.1 40.44 66.1 40.45 66.1 40.47 66.1 40.5 66.1 40.55 66.09 40.63 66.05 40.7 66.01 40.76 65.96 40.79 65.92 40.92 65.52 41 65 41.04 64.36 41.08 63.6 41.11 62.84 41.11 62.09 41.11 61.99 41.1 61.88 41.1 61.78 40.78 62.19 40.5 62.66 40.26 63.2Z" fill="#CB007B"/><path d="M57.54 61.88C57.15 61.42 56.63 61.05 55.97 60.77 55.31 60.49 54.57 60.34 53.74 60.32 52.91 60.3 52.1 60.49 51.32 60.88 50.79 61.13 50.43 61.65 50.23 62.45 50.04 63.25 49.96 64.18 50.02 65.26 50.07 66.34 50.22 67.5 50.47 68.74 50.72 69.98 51.01 71.17 51.35 72.32 51.69 73.47 52.04 74.51 52.41 75.45 52.78 76.39 53.13 77.09 53.44 77.55 53.9 78.29 54.4 79.05 54.95 79.83 55.5 80.61 56.13 81.3 56.83 81.9 57.54 82.5 58.36 82.95 59.3 83.25 60.24 83.55 61.34 83.56 62.62 83.28 63.29 83.14 63.97 82.63 64.66 81.77 65.35 80.9 65.99 79.89 66.57 78.74 67.15 77.59 67.68 76.4 68.14 75.18 68.6 73.96 68.95 72.89 69.2 71.97 69.59 70.59 69.97 69.24 70.34 67.91 70.71 66.58 70.93 65.48 71 64.59 71.07 63.71 70.9 63.14 70.5 62.89 70.09 62.64 69.31 62.89 68.14 63.63 66.79 64.52 65.74 65.74 64.98 67.29 64.22 68.85 63.63 70.43 63.23 72.04 62.82 73.65 62.51 75.12 62.3 76.45 62.09 77.78 61.86 78.65 61.61 79.08 61.36 79.5 60.99 79.38 60.5 78.71 60 78.04 59.53 76.97 59.07 75.5 58.61 74.03 58.25 72.24 57.98 70.14 57.71 68.03 57.72 65.76 58.01 63.32 58.09 62.81 57.93 62.34 57.54 61.88Z" fill="#CB007B"/><path d="M85.33 70.79C86.37 70.12 87.36 69.11 88.28 67.76 89.13 66.52 89.65 65.3 89.85 64.1 90.04 62.9 89.98 61.81 89.66 60.84 89.34 59.87 88.8 59.07 88.04 58.45 87.28 57.83 86.37 57.49 85.31 57.41 84.28 57.41 83.23 57.52 82.15 57.73 81.07 57.94 80.04 58.27 79.07 58.71 78.1 59.15 77.2 59.73 76.39 60.44 75.58 61.15 74.92 61.98 74.43 62.93 73.83 63.81 73.32 64.88 72.92 66.11 72.51 67.35 72.25 68.65 72.12 70.01 72 71.37 72.02 72.74 72.2 74.12 72.38 75.5 72.73 76.79 73.26 77.99 73.79 79.19 74.52 80.26 75.44 81.18 76.36 82.1 77.51 82.77 78.89 83.2 80.59 83.73 82.13 83.86 83.51 83.6 84.89 83.33 86.11 82.85 87.17 82.14 88.23 81.43 89.11 80.57 89.8 79.57 90.49 78.56 91.01 77.58 91.37 76.62 91.72 75.66 91.89 74.83 91.87 74.13 91.85 73.42 91.65 72.98 91.26 72.8 90.94 72.66 90.61 72.86 90.28 73.41 89.94 73.96 89.51 74.6 88.98 75.35 88.45 76.09 87.79 76.83 86.99 77.55 86.19 78.28 85.16 78.74 83.88 78.96 83.28 79.07 82.75 79.06 82.29 78.93 81.83 78.81 81.44 78.6 81.12 78.32 80.8 78.04 80.54 77.71 80.35 77.34 80.15 76.97 79.99 76.57 79.84 76.15 79.52 75.19 79.38 74.04 79.42 72.7 80.41 72.74 81.42 72.58 82.45 72.22 83.32 71.95 84.29 71.47 85.33 70.79ZM79.36 68.72C79.25 68.44 79.24 68.08 79.31 67.66 79.38 67.31 79.52 66.86 79.74 66.31 79.95 65.76 80.31 65.13 80.8 64.43 81.44 63.51 82.06 62.84 82.66 62.41 83.26 61.99 83.81 61.7 84.31 61.56 84.88 61.42 85.41 61.42 85.9 61.56 86.08 61.95 86.15 62.37 86.11 62.83 86.07 63.22 85.94 63.7 85.71 64.26 85.48 64.83 85.05 65.41 84.41 66.01 83.74 66.65 83.11 67.14 82.53 67.5 81.95 67.85 81.41 68.12 80.91 68.3 80.33 68.51 79.82 68.65 79.36 68.72Z" fill="#CB007B"/><path d="M152.9 74.94C152.78 74.55 152.6 74.29 152.37 74.17 152.14 74.05 151.88 74.11 151.6 74.36 151.32 74.61 151.03 75.14 150.75 75.95 150.47 76.73 149.94 77.5 149.16 78.26 148.38 79.02 147.47 79.55 146.43 79.85 145.39 80.15 144.31 80.12 143.19 79.74 142.08 79.37 141.06 78.44 140.14 76.95 139.68 76.24 139.34 75.63 139.13 75.12 138.92 74.61 138.78 74.17 138.71 73.82 138.6 73.43 138.55 73.11 138.55 72.86 140.18 71.02 141.66 68.97 143.01 66.7 143.58 65.74 144.14 64.68 144.71 63.52 145.28 62.35 145.8 61.11 146.28 59.8 146.76 58.49 147.17 57.11 147.53 55.66 147.88 54.21 148.13 52.69 148.27 51.1 148.52 49.26 148.39 47.8 147.9 46.72 147.4 45.64 146.8 44.84 146.09 44.3 145.24 43.66 144.23 43.26 143.06 43.08 141.47 42.9 140.08 43.15 138.89 43.82 137.7 44.49 136.68 45.41 135.81 46.58 134.94 47.75 134.22 49.09 133.63 50.61 133.05 52.13 132.58 53.67 132.22 55.23 131.9 56.72 131.63 58.46 131.4 60.46 131.17 62.46 131.08 64.54 131.13 66.7 131.18 68.86 131.4 70.99 131.79 73.1 132.03 74.42 132.4 75.65 132.85 76.79 132.21 77.67 131.53 78.33 130.78 78.75 130.04 79.17 129.15 79.21 128.13 78.86 127.63 78.68 127.22 78.29 126.88 77.67 126.54 77.05 126.28 76.3 126.08 75.41 125.89 74.53 125.75 73.56 125.68 72.52 125.61 71.48 125.58 70.43 125.6 69.39 125.62 68.35 125.68 67.37 125.79 66.47 125.9 65.57 126.02 64.82 126.16 64.21 126.48 63.11 126.5 62.34 126.21 61.9 125.93 61.46 125.51 61.21 124.96 61.16 124.41 61.11 123.83 61.18 123.21 61.37 122.59 61.56 122.09 61.75 121.7 61.93 121.31 62.14 120.96 62.49 120.64 62.97 120.32 63.45 120.03 64.02 119.76 64.7 119.49 65.37 119.27 66.1 119.1 66.88 118.92 67.66 118.78 68.47 118.68 69.32 118.61 71.51 118.64 73.4 118.76 74.97 118.88 76.54 119.13 77.88 119.5 78.98 119.79 79.85 120.19 80.58 120.67 81.17 120.38 81.28 120.07 81.37 119.76 81.45 119.14 81.61 118.51 81.6 117.88 81.42 117.1 81.24 116.51 80.82 116.1 80.15 115.69 79.48 115.37 78.66 115.14 77.71 114.91 76.75 114.75 75.71 114.66 74.58 114.57 73.45 114.48 72.32 114.39 71.21 114.3 70.1 114.17 69.03 113.99 68.03 113.81 67.02 113.55 66.18 113.19 65.51 112.66 64.52 112.05 63.78 111.36 63.28 110.67 62.78 109.95 62.51 109.21 62.46 108.47 62.41 107.73 62.52 107.01 62.81 106.28 63.09 105.62 63.5 105.02 64.03 104.38 64.6 103.76 65.28 103.16 66.07 102.56 66.87 102.03 67.64 101.57 68.38 101.04 69.26 100.54 70.17 100.08 71.09 100.11 69.29 100.1 67.68 100.03 66.26 99.99 65.66 99.96 65.07 99.92 64.48 99.88 63.9 99.82 63.37 99.73 62.91 99.64 62.45 99.55 62.08 99.46 61.8 99.37 61.52 99.26 61.38 99.12 61.38 98.84 61.38 98.47 61.44 98.03 61.57 97.59 61.69 97.15 61.87 96.7 62.1 96.26 62.33 95.83 62.6 95.43 62.9 95.02 63.2 94.71 63.53 94.5 63.88 94.36 64.13 94.23 64.71 94.13 65.63 94.02 66.55 93.94 67.64 93.89 68.89 93.84 70.15 93.8 71.47 93.78 72.87 93.76 74.27 93.77 75.58 93.81 76.8 93.84 78.02 93.91 79.07 94 79.93 94.09 80.8 94.2 81.3 94.34 81.44 94.59 81.65 95.02 81.83 95.64 81.97 96.26 82.11 96.9 82.18 97.55 82.18 98.2 82.18 98.81 82.11 99.38 81.97 99.95 81.83 100.32 81.56 100.49 81.17 100.63 80.82 100.72 80.27 100.76 79.52 100.79 78.78 100.87 77.93 101 76.97 101.12 76.01 101.36 74.99 101.72 73.89 102.07 72.79 102.62 71.7 103.37 70.6 104.01 69.64 104.6 68.91 105.15 68.4 105.7 67.89 106.19 67.65 106.61 67.68 107.03 67.72 107.38 68.07 107.64 68.74 107.91 69.41 108.07 70.44 108.14 71.82 108.32 75.68 108.99 78.8 110.16 81.19 111.33 83.58 113.24 84.95 115.89 85.3 117.23 85.48 118.43 85.33 119.47 84.85 120.51 84.37 121.38 83.8 122.07 83.12 122.23 82.96 122.38 82.8 122.52 82.65 122.87 82.83 123.23 82.99 123.63 83.12 124.69 83.51 125.75 83.67 126.81 83.6 127.87 83.53 128.87 83.27 129.81 82.83 130.75 82.39 131.6 81.78 132.36 81 132.94 80.41 133.44 79.75 133.86 79.01 134.76 80.56 135.92 81.85 137.35 82.86 138.85 83.92 140.74 84.47 143 84.51 143.88 84.54 144.71 84.45 145.47 84.22 146.23 83.99 146.93 83.68 147.57 83.29 148.21 82.9 148.79 82.46 149.32 81.96 149.85 81.46 150.31 80.95 150.7 80.42 151.62 79.22 152.38 77.82 152.98 76.23 153.07 75.75 153.03 75.32 152.9 74.94ZM137.75 63.31C137.71 61.61 137.75 59.96 137.86 58.35 137.97 56.74 138.14 55.22 138.39 53.78 138.64 52.35 138.96 51.11 139.37 50.06 139.78 49.02 140.27 48.2 140.86 47.62 141.44 47.04 142.11 46.78 142.85 46.85 143.42 46.92 143.82 47.2 144.07 47.67 144.32 48.15 144.45 48.73 144.47 49.42 144.49 50.11 144.43 50.86 144.31 51.68 144.19 52.49 144.05 53.29 143.91 54.07 143.63 55.66 143.17 57.28 142.53 58.93 141.89 60.58 141.24 62.09 140.57 63.47 139.79 65.1 138.94 66.67 138.02 68.19 137.87 66.64 137.78 65.01 137.75 63.31Z" fill="#CB007B"/><path d="M25.37 58.1C25.71 57.48 26.05 56.65 26.38 55.61 26.71 54.57 27.01 53.36 27.3 52 27.58 50.63 27.82 49.24 28 47.84 28.19 46.43 28.33 45.08 28.42 43.79 28.51 42.5 28.53 41.39 28.47 40.46 28.41 38.88 28.32 37.1 28.21 35.11 28.1 33.12 27.84 31.24 27.43 29.44 27.02 27.65 26.4 26.11 25.57 24.81 24.74 23.52 23.59 22.81 22.12 22.7 22.03 22.66 21.95 22.95 21.89 23.57 21.83 24.19 21.77 25.01 21.73 26.03 21.68 27.05 21.65 28.21 21.64 29.5 21.62 30.79 21.62 32.08 21.64 33.37 21.66 34.66 21.69 35.91 21.76 37.1 21.82 38.3 21.9 39.32 21.99 40.17 22.02 40.59 22.05 41.34 22.08 42.4 22.11 43.46 22.15 44.66 22.2 45.99 22.25 47.32 22.31 48.72 22.39 50.18 22.47 51.65 22.59 52.99 22.77 54.23 22.94 55.46 23.15 56.51 23.4 57.38 23.65 58.25 23.98 58.74 24.39 58.85 24.7 58.96 25.03 58.71 25.37 58.1Z" fill="#CB007B"/><path d="M50.13 50.38C49.69 50.61 49.25 50.85 48.83 51.11 48.14 51.54 47.41 52 46.64 52.47 46.31 50.95 45.93 49.78 45.5 48.96 45.07 48.14 44.66 47.42 44.27 46.79 43.61 45.72 42.97 45 42.35 44.62 41.83 44.31 41.32 44.15 40.83 44.15 40.73 44.15 40.64 44.16 40.54 44.17 39.96 44.24 39.41 44.45 38.91 44.8 38.4 45.14 37.94 45.5 37.52 45.87 37.1 46.24 36.74 46.56 36.42 46.81 36.22 46.97 36.05 47.05 35.91 47.05 35.83 47.05 35.75 47.02 35.68 46.97 35.35 46.7 35.13 46.29 35.01 45.74 34.89 45.19 34.85 44.59 34.9 43.93 34.94 43.27 35.06 42.62 35.24 41.96 35.42 41.3 35.66 40.74 35.96 40.26 36.26 39.78 36.79 39.54 37.55 39.54 38.31 39.54 39.08 39.6 39.87 39.72 40.66 39.84 41.36 39.94 41.97 40.01 42.1 40.03 42.22 40.03 42.33 40.03 42.71 40.03 42.91 39.92 42.93 39.72 42.96 39.45 42.68 39.07 42.1 38.58 41.52 38.09 40.82 37.61 40 37.15 39.18 36.69 38.32 36.31 37.41 36.01 36.76 35.8 36.17 35.69 35.65 35.69 35.44 35.69 35.25 35.71 35.06 35.74 34.61 35.83 34.17 35.96 33.72 36.14 33.27 36.32 32.86 36.61 32.47 37.01 32.08 37.41 31.72 37.96 31.4 38.64 31.07 39.33 30.8 40.23 30.6 41.37 30.42 42.5 30.46 43.6 30.71 44.68 30.96 45.75 31.32 46.71 31.78 47.54 32.24 48.37 32.77 49.05 33.37 49.55 33.97 50.06 34.5 50.31 34.98 50.31 35.43 50.31 35.9 50.17 36.41 49.89 36.92 49.61 37.38 49.29 37.8 48.93 38.31 48.51 38.8 48.04 39.28 47.5 39.52 47.8 39.77 48.14 40.04 48.53 40.25 48.86 40.46 49.25 40.69 49.71 40.91 50.17 41.1 50.66 41.25 51.16 41.49 52.02 41.68 52.73 41.83 53.28 41.98 53.83 42.08 54.29 42.14 54.64 42.23 55.06 42.29 55.38 42.32 55.62 41.22 56.31 40.19 57.12 39.24 58.08 38.44 58.88 37.67 59.88 36.94 61.07 36.21 62.26 35.73 63.63 35.49 65.18 35.28 66.7 35.43 68.02 35.94 69.14 36.45 70.26 37.15 71.08 38.04 71.62 38.74 72.04 39.52 72.25 40.39 72.25 40.63 72.25 40.88 72.23 41.13 72.2 42.29 72.05 43.44 71.47 44.57 70.46 45.37 69.74 46.01 68.83 46.49 67.71 46.97 66.59 47.31 65.37 47.52 64.05 47.73 62.72 47.82 61.34 47.79 59.89 47.76 58.44 47.64 57.02 47.43 55.62 47.73 55.38 48.09 55.07 48.53 54.68 48.96 54.29 49.41 53.9 49.87 53.5 50.33 53.1 50.78 52.72 51.21 52.36 51.23 52.34 51.25 52.33 51.27 52.32 51.48 52.61 51.7 52.89 51.93 53.16 52.46 53.77 53.05 54.31 53.72 54.78 54.99 55.67 56.57 56.14 58.48 56.17 59.22 56.2 59.92 56.12 60.56 55.92 61.2 55.73 61.79 55.47 62.33 55.14 62.87 54.81 63.36 54.44 63.8 54.02 64.25 53.6 64.63 53.17 64.96 52.72 65.17 52.45 65.36 52.17 65.55 51.88 65.89 52.42 66.29 52.93 66.75 53.39 67.52 54.17 68.49 54.73 69.66 55.09 71.09 55.54 72.39 55.65 73.55 55.43 74.71 55.21 75.74 54.8 76.63 54.2 77.52 53.6 78.26 52.88 78.84 52.03 79.42 51.18 79.86 50.35 80.16 49.55 80.46 48.75 80.6 48.05 80.58 47.45 80.56 46.85 80.39 46.48 80.07 46.33 79.8 46.21 79.53 46.38 79.24 46.84 78.96 47.3 78.59 47.85 78.15 48.47 77.7 49.1 77.14 49.71 76.47 50.32 75.8 50.93 74.93 51.33 73.86 51.5 73.35 51.59 72.91 51.58 72.52 51.48 72.13 51.38 71.8 51.2 71.54 50.97 71.27 50.73 71.06 50.46 70.89 50.14 70.73 49.83 70.58 49.49 70.47 49.13 70.2 48.33 70.08 47.36 70.11 46.23 70.94 46.26 71.79 46.13 72.66 45.83 73.4 45.59 74.22 45.19 75.1 44.62 75.98 44.05 76.81 43.21 77.58 42.07 78.3 41.03 78.73 40 78.9 38.99 79.06 37.98 79.01 37.06 78.74 36.24 78.47 35.42 78.02 34.75 77.38 34.23 76.74 33.71 75.97 33.42 75.08 33.36 74.22 33.36 73.33 33.45 72.42 33.63 71.51 33.81 70.65 34.08 69.83 34.46 69.01 34.83 68.26 35.32 67.57 35.91 66.88 36.51 66.33 37.21 65.92 38.01 65.41 38.76 64.99 39.65 64.65 40.69 64.31 41.73 64.08 42.83 63.98 43.97 63.88 45.12 63.9 46.27 64.05 47.43 64.15 48.24 64.33 49.01 64.58 49.75 64.34 50.13 64.03 50.52 63.64 50.9 62.98 51.54 62.22 51.99 61.34 52.24 60.46 52.49 59.55 52.46 58.61 52.15 57.67 51.84 56.81 51.05 56.04 49.8 55.65 49.2 55.37 48.69 55.19 48.26 55.01 47.83 54.89 47.46 54.83 47.17 54.74 46.84 54.7 46.57 54.7 46.37 56.07 44.82 57.32 43.09 58.45 41.19 58.93 40.39 59.4 39.49 59.88 38.51 60.36 37.53 60.8 36.48 61.2 35.38 61.6 34.28 61.95 33.12 62.25 31.89 62.55 30.67 62.76 29.39 62.88 28.05 63.09 26.5 62.98 25.27 62.57 24.36 62.15 23.45 61.65 22.77 61.05 22.33 60.34 21.79 59.49 21.45 58.5 21.3 57.16 21.15 55.99 21.36 54.99 21.93 53.99 22.5 53.13 23.27 52.4 24.25 51.67 25.23 51.06 26.37 50.57 27.65 50.08 28.93 49.68 30.23 49.39 31.54 49.12 32.79 48.89 34.26 48.7 35.94 48.51 37.62 48.43 39.37 48.48 41.19 48.52 43.01 48.71 44.8 49.04 46.58 49.22 47.57 49.48 48.5 49.81 49.37 49.85 49.73 49.98 50.06 50.13 50.38ZM42.1 64.43C42.06 65.22 41.94 65.87 41.76 66.37 41.64 66.61 41.44 66.81 41.16 66.97 40.94 67.1 40.71 67.16 40.46 67.16 40.39 67.16 40.33 67.16 40.26 67.15 39.95 67.11 39.66 66.91 39.39 66.57 39.12 66.23 38.96 65.68 38.9 64.94 38.84 64.16 38.97 63.43 39.28 62.75 39.59 62.06 39.96 61.47 40.38 60.96 40.86 60.36 41.41 59.8 42.03 59.26 42.09 60.24 42.13 61.18 42.16 62.08 42.17 62.86 42.14 63.64 42.1 64.43ZM69.97 42.01C70.03 41.71 70.15 41.33 70.33 40.87 70.51 40.41 70.81 39.88 71.22 39.28 71.76 38.51 72.28 37.94 72.78 37.58 73.29 37.22 73.75 36.98 74.17 36.87 74.65 36.75 75.09 36.75 75.51 36.87 75.66 37.2 75.72 37.56 75.69 37.94 75.66 38.27 75.55 38.67 75.35 39.15 75.16 39.63 74.79 40.12 74.25 40.62 73.68 41.16 73.16 41.57 72.66 41.87 72.17 42.17 71.71 42.39 71.3 42.54 70.82 42.72 70.39 42.84 70 42.9 69.92 42.67 69.91 42.37 69.97 42.01ZM54.06 34.17C54.15 32.81 54.3 31.53 54.51 30.33 54.72 29.12 54.99 28.08 55.34 27.2 55.68 26.32 56.1 25.64 56.59 25.14 57.08 24.65 57.64 24.43 58.27 24.49 58.75 24.55 59.09 24.78 59.3 25.18 59.51 25.58 59.62 26.07 59.64 26.65 59.65 27.23 59.61 27.86 59.51 28.55 59.41 29.24 59.29 29.91 59.17 30.56 58.93 31.9 58.54 33.26 58.01 34.65 57.47 36.04 56.92 37.31 56.36 38.47 55.7 39.84 54.99 41.17 54.21 42.45 54.09 41.14 54.02 39.77 53.99 38.34 53.94 36.92 53.97 35.53 54.06 34.17Z" fill="#CB007B"/><path d="M95.6 55.36C96.39 54.78 96.86 54.07 97.01 53.24 97.13 52.41 97.02 51.59 96.67 50.8 96.33 50.01 95.86 49.24 95.26 48.48 94.66 47.72 93.99 46.98 93.25 46.25 92.51 45.52 91.82 44.78 91.19 44.02 90.56 43.26 90.03 42.48 89.6 41.67 89.17 40.87 88.97 40.03 89 39.17 89 38.31 89.11 37.59 89.34 37.02 89.56 36.45 89.84 35.99 90.17 35.63 90.5 35.27 90.84 35 91.2 34.8 91.56 34.61 91.88 34.44 92.16 34.31 92.44 34.18 92.66 34.04 92.81 33.91 92.96 33.78 92.97 33.59 92.85 33.35 92.76 33.2 92.64 33.04 92.49 32.88 92.34 32.72 92.11 32.57 91.8 32.46 91.49 32.34 91.06 32.27 90.53 32.26 89.99 32.25 89.31 32.31 88.47 32.46 86.77 32.76 85.54 33.4 84.78 34.38 84.02 35.36 83.64 36.91 83.64 39.03 83.64 40.1 84.02 41.17 84.78 42.23 85.54 43.29 86.42 44.29 87.42 45.22 88.42 46.16 89.39 47.02 90.35 47.79 91.3 48.57 91.97 49.21 92.36 49.71 92.75 50.22 92.9 50.67 92.83 51.07 92.76 51.47 92.54 51.82 92.18 52.1 91.82 52.38 91.37 52.59 90.82 52.73 90.27 52.86 89.72 52.92 89.19 52.89 88.33 52.86 87.56 52.68 86.89 52.35 86.22 52.02 85.67 51.63 85.24 51.17 84.81 50.71 84.53 50.22 84.41 49.7 84.29 49.18 84.35 48.71 84.59 48.29 85.1 47.46 85.24 46.85 85.01 46.46 84.79 46.07 84.33 46.07 83.65 46.46 83.32 46.64 82.93 46.88 82.49 47.2 82.04 47.51 81.64 47.95 81.28 48.5 80.92 49.05 80.68 49.74 80.54 50.58 80.41 51.41 80.5 52.44 80.83 53.66 81.04 54.49 81.56 55.18 82.39 55.72 83.22 56.26 84.21 56.65 85.36 56.9 86.51 57.15 87.74 57.26 89.05 57.24 90.36 57.21 91.58 57.04 92.72 56.73 93.85 56.38 94.81 55.94 95.6 55.36Z" fill="#CB007B"/><path d="M118.21 35.49C117.51 35.52 116.72 35.65 115.84 35.87 114.96 36.09 114.08 36.45 113.2 36.94 112.32 37.43 111.49 38.07 110.72 38.84 109.94 39.62 109.32 40.55 108.84 41.66 108.12 43.36 107.79 44.97 107.83 46.51 107.87 47.85 108.11 49.03 108.54 50.09 108.09 50.64 107.61 51.07 107.1 51.36 106.47 51.72 105.73 51.75 104.87 51.45 104.45 51.3 104.1 50.97 103.82 50.44 103.54 49.92 103.31 49.29 103.15 48.54 102.99 47.8 102.87 46.98 102.81 46.1 102.75 45.22 102.73 44.34 102.74 43.46 102.75 42.58 102.81 41.76 102.9 41 102.99 40.24 103.09 39.61 103.21 39.1 103.48 38.18 103.49 37.53 103.25 37.16 103.01 36.79 102.66 36.58 102.2 36.53 101.74 36.49 101.25 36.55 100.72 36.71 100.2 36.87 99.77 37.03 99.45 37.18 99.12 37.36 98.82 37.65 98.56 38.05 98.29 38.45 98.05 38.94 97.82 39.5 97.6 40.07 97.41 40.68 97.26 41.33 97.12 42 97 42.68 96.91 43.4 96.85 45.25 96.87 46.83 96.98 48.16 97.08 49.49 97.29 50.61 97.61 51.53 97.92 52.45 98.36 53.19 98.93 53.74 99.5 54.29 100.23 54.72 101.12 55.01 102.01 55.34 102.91 55.47 103.8 55.41 104.69 55.35 105.54 55.13 106.33 54.76 107.12 54.39 107.83 53.87 108.48 53.22 108.88 52.81 109.23 52.35 109.55 51.86 109.96 52.42 110.43 52.91 110.96 53.31 111.88 54 112.87 54.32 113.91 54.29 114.95 54.23 115.83 54 116.55 53.6 117.27 53.2 117.85 52.76 118.29 52.28 118.83 51.74 119.24 51.12 119.54 50.4 119.9 51.5 120.37 52.43 120.97 53.17 121.24 53.5 121.54 53.8 121.86 54.06 122.19 54.33 122.57 54.54 123 54.69 123.43 54.84 123.92 54.91 124.45 54.91 124.99 54.91 125.57 54.79 126.19 54.55 127.38 54.1 128.36 53.47 129.12 52.65 129.88 51.83 130.45 51.01 130.84 50.19 131.23 49.37 131.45 48.63 131.51 47.98 131.57 47.32 131.49 46.95 131.29 46.86 131.11 46.77 130.87 46.94 130.58 47.37 130.28 47.8 129.92 48.29 129.51 48.82 129.09 49.36 128.62 49.84 128.1 50.27 127.58 50.7 126.99 50.86 126.33 50.74 125.38 50.53 124.74 49.81 124.41 48.57 124.08 47.33 123.96 45.51 124.05 43.1 124.11 41.91 124.01 41.07 123.76 40.57 123.51 40.08 123.17 39.79 122.75 39.7 122.33 39.61 121.89 39.63 121.43 39.74 120.97 39.86 120.57 39.93 120.25 39.96 119.92 39.99 119.69 40.21 119.56 40.63 119.43 41.05 119.34 41.54 119.29 42.1 119.25 42.67 119.24 43.24 119.27 43.82 119.3 44.4 119.31 44.86 119.31 45.18 119.31 45.51 119.18 45.98 118.91 46.59 118.64 47.2 118.3 47.8 117.88 48.38 117.46 48.96 116.99 49.47 116.47 49.92 115.95 50.37 115.45 50.59 114.97 50.59 114.58 50.59 114.26 50.2 114.01 49.41 113.76 48.62 113.62 47.68 113.61 46.59 113.59 45.5 113.71 44.36 113.95 43.17 114.19 41.98 114.6 40.95 115.2 40.09 115.59 39.55 116.06 39.12 116.63 38.79 117.2 38.46 117.75 38.16 118.28 37.9 118.82 37.63 119.29 37.37 119.71 37.12 120.13 36.87 120.38 36.55 120.47 36.16 120.53 35.92 120.34 35.74 119.91 35.6 119.48 35.51 118.91 35.46 118.21 35.49Z" fill="#CB007B"/></g><path d="M35.65 28.07C37.24 28.07 38.52 26.78 38.52 25.2L38.52 13.13 43.87 7.98 48.84 12.76 48.84 23.37 62.36 10.36 77.27 20.06 77.27 27.03 116.31 27.03C117.9 27.03 119.18 25.74 119.18 24.16 119.18 22.57 117.89 21.29 116.31 21.29L83.02 21.29 83.02 16.95 61.67 3.05 54.36 10.09 43.88 0 32.78 10.68 32.78 25.2C32.77 26.79 34.06 28.07 35.65 28.07Z" fill="#CB007B"/></g></svg>